<?xml version="1.0" encoding="UTF-8"?>
<svg xmlns="http://www.w3.org/2000/svg" viewBox="0 0 677.97 305.12">
  <defs>
    <style>
      .cls-1 {
        fill: #55565e;
      }

      .cls-2 {
        fill: #63438e;
        opacity: .44;
      }

      .cls-2, .cls-3, .cls-4, .cls-5, .cls-6, .cls-7, .cls-8, .cls-9, .cls-10, .cls-11, .cls-12, .cls-13, .cls-14, .cls-15, .cls-16, .cls-17, .cls-18, .cls-19 {
        mix-blend-mode: multiply;
      }

      .cls-20 {
        opacity: .47;
      }

      .cls-20, .cls-21 {
        fill: azure;
      }

      .cls-21 {
        opacity: .28;
      }

      .cls-22 {
        stroke: #0d3449;
      }

      .cls-22, .cls-23, .cls-24, .cls-25, .cls-26 {
        stroke-linecap: round;
      }

      .cls-22, .cls-23, .cls-24, .cls-25, .cls-26, .cls-18 {
        fill: none;
      }

      .cls-22, .cls-23, .cls-25, .cls-26 {
        stroke-linejoin: round;
      }

      .cls-27 {
        fill: #eaeaea;
      }

      .cls-3 {
        opacity: .56;
      }

      .cls-4, .cls-13 {
        opacity: .43;
      }

      .cls-5 {
        opacity: .61;
      }

      .cls-6 {
        opacity: .58;
      }

      .cls-7 {
        opacity: .64;
      }

      .cls-8 {
        opacity: .34;
      }

      .cls-9 {
        opacity: .92;
      }

      .cls-28 {
        fill: #c69b85;
      }

      .cls-29 {
        fill: #8478d6;
      }

      .cls-23 {
        stroke: #0b0e0f;
      }

      .cls-30 {
        fill: #aa4e39;
      }

      .cls-31 {
        fill: #0b0e0f;
      }

      .cls-32 {
        fill: #553797;
      }

      .cls-33, .cls-10, .cls-11 {
        fill: #c4685f;
      }

      .cls-10 {
        opacity: .76;
      }

      .cls-11 {
        opacity: .81;
      }

      .cls-34 {
        isolation: isolate;
      }

      .cls-12 {
        opacity: .54;
      }

      .cls-12, .cls-35 {
        fill: #a5715e;
      }

      .cls-36, .cls-19 {
        fill: #80ad9e;
      }

      .cls-13, .cls-37 {
        fill: #dd7c3a;
      }

      .cls-38 {
        fill: #ff3772;
      }

      .cls-39 {
        fill: #ffe36c;
      }

      .cls-24 {
        stroke: #ffe36c;
        stroke-width: 3px;
      }

      .cls-24, .cls-18 {
        stroke-miterlimit: 10;
      }

      .cls-40 {
        fill: #fff;
      }

      .cls-41 {
        fill: #fd9985;
      }

      .cls-15 {
        opacity: .24;
      }

      .cls-15, .cls-16, .cls-42 {
        fill: #db5a45;
      }

      .cls-16, .cls-18 {
        opacity: .73;
      }

      .cls-43, .cls-17 {
        fill: #6d463b;
      }

      .cls-17 {
        opacity: .5;
      }

      .cls-44 {
        fill: #7852ac;
      }

      .cls-25 {
        stroke: #462359;
        stroke-width: 1.58px;
      }

      .cls-45 {
        opacity: .7;
      }

      .cls-46 {
        fill: #3f3029;
      }

      .cls-47 {
        fill: #462359;
      }

      .cls-48 {
        fill: #1a4a6b;
      }

      .cls-49 {
        fill: #dc7262;
      }

      .cls-26 {
        stroke: #1a4a6b;
      }

      .cls-50 {
        fill: #d6ba47;
      }

      .cls-18 {
        stroke: #db5a45;
      }

      .cls-51 {
        fill: #6e3fac;
      }

      .cls-52 {
        fill: #3a8e8c;
      }

      .cls-53 {
        fill: #b8dddd;
      }

      .cls-54 {
        fill: #2e2f3a;
      }

      .cls-55 {
        fill: #f4668a;
      }
    </style>
  </defs>
  <g class="cls-34">
    <g id="OBJECTS">
      <g>
        <g>
          <path class="cls-27" d="M597.36,282.27c-1.2-3.24.45-6.84,3.69-8.04s6.84.45,8.04,3.69c1.2,3.24-.45,6.84-3.69,8.04s-6.84-.45-8.04-3.69Z"/>
          <path class="cls-27" d="M509.7,282.7c-1.65,2.3-6.28,1.8-10.36-1.12-4.07-2.92-6.04-7.15-4.4-9.45,1.65-2.3,6.28-1.8,10.36,1.12,4.07,2.92,6.04,7.15,4.4,9.45Z"/>
          <path class="cls-27" d="M519.75,288.01c-.77-2.09-3.1-3.16-5.19-2.38-2.09.77-3.16,3.1-2.38,5.19.77,2.09,3.1,3.16,5.19,2.38,2.09-.77,3.16-3.1,2.38-5.19Z"/>
          <ellipse class="cls-27" cx="543.9" cy="248.65" rx="35.9" ry="61.89" transform="translate(-25.59 431.21) rotate(-42.34)"/>
        </g>
        <g>
          <path class="cls-31" d="M608.83,212.63l-27.21,28.73-10.95,18.52-4.1,10.44c-.56,1.42-1.88,2.63-3.42,3.61-3.53,2.26-8.24.29-9.17-3.8l-.13-.59,5.74-16.83,3.82-11.57,1.52-13.97,5.12-24.54s29.28-20.1,38.79,10Z"/>
          <path class="cls-31" d="M560.56,166.65l-17.18,35.64-13.42,16.81-8.02,7.3c-1.24,1.12-1.89,2.99-2.21,4.98-.67,4.15,3.05,7.69,7.18,6.88h0l13.7-11.34,10.6-8.41,11.37-5.65,21.11-13.51s8.38-34.51-23.13-32.7Z"/>
          <path class="cls-43" d="M608.07,178.27l-24.78,27.75-32.09,12.48-17.04,13.75s3.1-10.29-8.95-8.84l4.74-4.31,13.41-16.81,17.18-35.64s11.35-6.67,47.52,11.61Z"/>
          <path class="cls-43" d="M608.83,212.62l-27.2,28.73-10.95,18.52-2.49,6.34s1.05-10.71-11.81-4.09l7.02-21-1.93-37.87,24.02-26.75c24.94,24.26,23.35,36.11,23.35,36.11Z"/>
          <path class="cls-23" d="M529.96,219.11s-.66,2.72,3.34,6.42c4,3.7,7.05,1.74,7.05,1.74"/>
          <path class="cls-23" d="M558.87,254.66s1.47,4.88,6.41,5.63c4.94.75,5.4-.42,5.4-.42"/>
        </g>
        <g>
          <path class="cls-43" d="M605.25,252.18l13.41,12.99-3.23,13.21h0c1.73,1.43,4.31,1.09,5.62-.73l1.85-2.59,4.52.57,11.1,5.44c.82.4,1.82.19,2.41-.51h0c.72-.87.58-2.17-.31-2.86l-7.23-5.57,10.32,2.91c.91.26,1.87-.09,2.42-.85h0c.79-1.11.4-2.66-.81-3.27l-6.7-3.39,8.06,1.28c1.02.16,1.99-.48,2.24-1.48h0c.25-1-.3-2.03-1.27-2.37l-6.09-2.13,4-.55c1.73-.24,2.84-1.97,2.33-3.64h0l-13.64-1.13,3.63-27.24s-31.95.28-32.61,21.91Z"/>
          <path class="cls-11" d="M634.23,257.51s-3,5.13-9.64,6.05c0,0,7.48,3.03,13.76-5.71l-4.12-.34Z"/>
        </g>
        <g>
          <path class="cls-43" d="M514.29,171.03l-18.62-1.3-7.67,11.23h0c-2.22-.33-3.69-2.48-3.21-4.67l.69-3.11-3.45-2.98-11.46-4.63c-.85-.34-1.36-1.22-1.23-2.13h0c.16-1.12,1.22-1.88,2.33-1.67l8.98,1.66-9.06-5.73c-.79-.5-1.19-1.45-.98-2.37h0c.3-1.33,1.71-2.08,2.98-1.58l6.99,2.72-6.34-5.14c-.8-.65-.97-1.8-.4-2.65h0c.57-.86,1.71-1.13,2.61-.64l5.65,3.11-2.26-3.34c-.98-1.45-.43-3.43,1.15-4.17h0l9.95,9.4,17.84-20.9s21.14,23.96,5.49,38.91Z"/>
          <path class="cls-22" d="M497.86,170.47c-7.39,7.42-16.97-21.15-3.42-22.2"/>
        </g>
        <g>
          <path class="cls-36" d="M529.62,117.54c-17.72,3.67-28.88,20.33-26.92,38.7,1.16,10.87.47,34.03,9.47,47.16,5.59,8.16,28.06,17.51,28.06,17.51,0,0,13.59,20.48,21.92,25.6,14.74,9.05,31.36,4.82,43.11,5.68,17.02,1.24,31.79-10.22,33.6-26.95,1.03-9.53-1.91-20.86-13.97-32.75-32.16-31.71-43.04-42.44-67.37-66.43-9.12-9-19.04-10.34-27.88-8.51Z"/>
          <path class="cls-19" d="M633.45,203.09c-5.26,6.06-13.67,10.74-26.44,13.03-34.52,6.19-49.85-19.08-56.62-40.64-4.85-15.46,2.88-32.08,17.85-38.29l.39-.16c17.38,17.15,29.39,29,56.23,55.46,3.65,3.6,6.47,7.15,8.59,10.61Z"/>
          <path class="cls-26" d="M639.03,221.3s-.1-14.97-14.16-28.82c-14.05-13.86-41.96-41.37-41.96-41.37"/>
          <path class="cls-43" d="M602.6,202.73c-4.88,4.3-10.8,9.01-17.19,12.91-14.06,8.57-30.36,13.28-42.53,1.31-17.17-16.88-7-40.34,2.28-54.76.46-.7.98-1.36,1.53-1.97,5.06-5.5,14.15-7.06,20.06-3.06l35.87,24.26c7.29,4.94,7.32,14.8-.02,21.3Z"/>
          <path class="cls-11" d="M557.56,224.01c-5.23-.56-10.23-2.7-14.68-7.07-3.62-3.57-6.02-7.41-7.48-11.42,2.94,3.8,7.18,6.67,13.17,5.88,0,0,.96,8.29,8.98,12.61Z"/>
          <path class="cls-11" d="M602.6,202.73c-4.88,4.3-10.8,9.01-17.19,12.91-23.46-2.78-44.54-22.87-38.72-55.41,5.06-5.5,14.15-7.06,20.06-3.06l35.87,24.26c7.29,4.94,7.32,14.8-.02,21.3Z"/>
          <path class="cls-48" d="M589,252.85c-6.03,0-19.46-.63-27.22-5.81-9.94-6.65-21.61-25.01-22.1-25.79-.19-.3-.1-.7.2-.89.3-.19.7-.1.89.2.12.19,12.01,18.91,21.73,25.41,9.65,6.46,29.3,5.54,29.5,5.54.37-.04.66.26.68.61.02.36-.26.66-.61.68-.18.01-1.31.06-3.06.06Z"/>
          <path class="cls-48" d="M542.88,217.59c-.14,0-.28-.05-.4-.14-.2-.16-19.6-16.33-2.66-47.28.17-.31.56-.43.87-.26.31.17.43.56.26.87-16.4,29.97,2.15,45.51,2.34,45.66.28.22.32.63.1.91-.13.16-.31.24-.5.24Z"/>
        </g>
        <g>
          <path class="cls-37" d="M668.8,122.88c3.4-.43,5.43,5.55,6.08,7.71.47,1.57.91,3.39.01,4.77-1.09,1.66-3.46,1.71-5.44,1.58,2.86,1.23,4.9,4.17,5.05,7.27.2,4.08-3.33,7.75-6.17,10.3-2.74,2.46-6.73,3.46-10.31,2.58,3.71.91,1.58,10.4.49,12.13-1.21,1.92-3.84,3.15-5.82,2.04,2.24,3.93,1.91,9.17-.81,12.78-2.71,3.62-7.65,5.4-12.05,4.35-.5,3.32-2.88,6.29-6.01,7.5-3.13,1.21-6.89.62-9.5-1.5-1.14,6.33-7.64,11.2-14.04,10.53-2.31-.24-5.05-2.18-4.11-4.3-3.02,2.05-6.54,3.34-10.17,3.72-1.24.13-2.6.13-3.62-.6-2.35-1.68-1.08-5.35.38-7.84-3.31-.15-6.93,2.43-9.66.55-.91-.63-1.48-1.65-1.84-2.7-1.67-4.81.4-10,1.54-14.97.4-1.76.63-3.8-.51-5.2-.73-.89-1.89-1.33-3.04-1.46-5.39-.62-9.51,4.39-14.15,7.2-3.9,2.36-8.54,3.22-13.1,3.43-2.22.1-4.52.04-6.54-.89-2.02-.92-3.7-2.9-3.67-5.12.03-1.97,1.05-4.62-.74-5.45-.64-.3-1.4-.15-2.1-.3-1.6-.34-2.48-2.25-2.19-3.86.29-1.61,1.43-2.93,2.65-4.03-2.55,1.58-6.37.4-7.6-2.33-1.23-2.74.44-6.37,3.32-7.23-4.9-1.96-7.42-7.92-6.43-13.1.99-5.18,4.87-9.46,9.45-12.07-4.02-.65-7.76-1.58-7.19-6.75.46-4.19,4.59-7.3,8.79-7.7-2.99-1.49-6.48-3.93-5.84-7.2.44-2.27,2.74-3.63,4.85-4.59,3.02-1.38,6.14-2.55,9.32-3.52-3.57-3.07-7.46-6.91-7.03-11.6.42-4.63,5.38-7.93,10.03-7.64,4.64.29,8.72,3.37,11.48,7.11.7-3.13-.74-6.39-.36-9.58.46-3.86,3.5-6.93,6.81-8.96,3.59-2.21,7.93-3.6,12.04-2.64,4.1.96,7.68,4.81,7.3,9.01,4.61-7.07,11.53-14.52,20.72-10.21,8.96,4.21,9.51,15.09,1.87,21.33,2.31-2.81,5.81-4.6,9.44-4.85,1.4-.09,3.04.17,3.74,1.39.39.68.39,1.51.3,2.29-.35,3.03-1.99,5.9-4.42,7.74.48-.8,1.47-1.26,2.4-1.12.37,2.24.58,4.51.63,6.78.54-3.58,1.98-7.02,4.17-9.9.91-1.2,2.15-2.4,3.65-2.33,2.53.13,3.38,3.42,3.36,5.95,1.04-6.2,8.94-10.04,14.54-7.19,5.6,2.86,7.21,11.29,3.18,16.13,1.72-1.67,4.55-2.07,6.66-.93,2.11,1.14,3.33,3.73,2.87,6.08,2.16-1.93,4.54-3.96,7.43-4.19,3.73-.29,7.11,2.7,8.43,6.19,2.39,6.3-1.81,14.54-8.49,15.37Z"/>
          <path class="cls-13" d="M621.84,119.89c-1.44-.55-2.97-.76-4.43-1.3-2.09-.77-3.63-2.22-5.25-3.7-1.46-1.33-2.94-2.68-4.04-4.32-.83-1.24-1.43-2.62-2.01-3.99-.35-.84-.7-1.7-.86-2.6-.27-1.51.26-3.08.67-4.52.47-1.65,1.14-3.26,2.22-4.61,1.87-2.34,5.43-3.62,7.95-2,1.06.68,1.8,1.76,2.42,2.86,1.63,2.88,2.68,6.09,3.08,9.37.76-2.34,1.63-4.83,3.61-6.28,1.98-1.45,5.42-1.09,6.21,1.23,1.83-2.67,4.35-5.01,7.44-5.96,3.1-.95,6.8-.28,8.93,2.17,2.94,3.39,2,8.53.89,12.87,1.01-1.15,2.08-2.34,3.49-2.93,1.42-.59,3.3-.36,4.15.91.47.7.55,1.58.62,2.41.19,2.25.39,4.51.58,6.76-.34-3.92,7.5-9.27,10.44-10.67,12.58-6.02,12.64,15.74.78,17.24,3.4-.43,5.43,5.55,6.08,7.71.47,1.57.91,3.39.01,4.77-1.09,1.66-3.46,1.71-5.44,1.58,2.86,1.23,4.9,4.17,5.05,7.27.2,4.08-3.33,7.75-6.17,10.3-2.74,2.46-6.73,3.46-10.31,2.58,3.71.91,1.58,10.4.49,12.13-1.21,1.92-3.84,3.15-5.82,2.04,2.24,3.93,1.91,9.17-.81,12.78-2.71,3.62-7.65,5.4-12.05,4.35-.5,3.32-2.88,6.29-6.01,7.5-3.13,1.21-6.89.62-9.5-1.5-1.14,6.33-7.64,11.2-14.04,10.53-2.3-.24-5.05-2.18-4.11-4.3-3.02,2.05-6.54,3.34-10.17,3.72-1.24.13-2.6.13-3.62-.6-2.35-1.68-1.08-5.35.38-7.84-3.31-.15-6.93,2.43-9.66.55-2.53-1.74-1.68-4.4-2.38-6.86,1.08,3.79,6.2,4.37,10.08,3.69,11.76-2.04,22.25-8.78,30.04-17.69,7.78-8.91,14.73-22.14,14.51-34.22-.17-8.96-5.09-18.24-13.46-21.45Z"/>
          <path class="cls-43" d="M613.33,192.76c.83-1.11,1.6-2.27,2.3-3.49-.97,2.82,1.38,4.15,3.95,4.28,2.28.12,4.5-.78,6.43-1.93,3.94-2.34,7.21-5.92,9.88-9.6,2.93-4.05,5.29-9.05,4.17-13.92-1.1-4.8-7.89-7.1-10.53-2.06,4.66-8.67,7.57-19.27,5.77-29.09-1.42-7.69-5.57-14.59-11.3-19.85-10.21-9.39-24.27-14.96-38.16-12.52-6.23,1.09-12.17,3.71-17.24,7.49-6.03,4.5-10.4,10.51-12.94,17.56-.02-2.9-1.34-6.07-4.04-7.13-1.99-.78-4.32-.23-6.11.95-2.54,1.67-4.97,4.58-6.05,7.39-2.69,7.01-2.94,15.05-.06,21.99.59,1.42,1.39,2.88,2.77,3.57,1.6.8,2.98-.06,4.11-1.24-3.72,3.86-5.41,11.89-5.21,17.09.23,6.17,3.43,11.87,7.35,16.65,8.39,10.25,20.84,17.5,34.07,18.08,11.85.52,23.76-4.75,30.87-14.19Z"/>
          <g>
            <g>
              <path class="cls-11" d="M585.47,186.69c-1.34.61-3.1,1.52-3.49,1.67-1.49.57-2.9,1.1-4.52,1.26-3.34.33-6.61-.71-9.17-2.89-3.14-2.68-5.08-6.76-5.09-10.89.21,1.18,3.62.34,4.53.3,2.73-.12,6.03-.05,7.94,2.22.18.22.36.45.62.56.36.15.77.01,1.15-.05,2.19-.35,3.86,1.38,5.18,2.85,1.4,1.56,2.56,3.43,4.4,4.43-.13-.07-.77.18-1.56.54Z"/>
              <g class="cls-6">
                <path class="cls-46" d="M560.06,172.26c.85,1.18,1.67,2.41,2.73,3.37.52.49,1.08.91,1.71,1.22.62.32,1.3.54,1.99.76,2.88.84,5.39,2.68,7.53,4.6.53.44.99.59,1.66.49.65-.11,1.53-.24,2.3-.1,1.56.25,2.91.94,4.2,1.61,1.28.67,2.59,1.27,3.98,1.58,1.38.35,2.85.24,4.27-.11-1.34.57-2.87.8-4.36.6-1.48-.22-2.89-.77-4.23-1.37-1.34-.57-2.64-1.21-3.99-1.36-.69-.1-1.26,0-2.05.13-.39.05-.84.07-1.29-.06-.44-.13-.81-.37-1.12-.61-1.13-1.02-2.17-1.9-3.39-2.69-.59-.4-1.2-.77-1.83-1.11-.61-.33-1.27-.59-1.95-.86-.68-.27-1.38-.54-2.04-.93-.66-.39-1.25-.88-1.75-1.43-.99-1.13-1.72-2.41-2.38-3.71Z"/>
              </g>
            </g>
            <g>
              <path d="M568.66,157c-.99.62-2.29.74-3.62.04-.93-.49-1.68-1.29-2.24-2.18-.47-.76-.83-1.66-.68-2.55.13-.8.66-1.49,1.29-2,2.48-1.97,5.71-.84,6.75,2.08.67,1.87-.1,3.74-1.51,4.61Z"/>
              <path d="M598.65,171.27c.17.83.67,1.61,1.27,2.23,1.44,1.49,4.42,1.61,5.86-.05.35-.4.55-.92.65-1.45.28-1.34,0-2.82-.91-3.85-2.1-2.39-6.26-.97-6.88,1.99-.08.38-.07.75,0,1.12Z"/>
            </g>
            <path class="cls-37" d="M565.44,138.25c-.65-1.72-.3-3.74,1.14-5.29.7-.77,1.65-1.31,2.63-1.66.48-.17.97-.24,1.47-.33.48-.04.95-.05,1.43-.04,1.85.12,3.44.79,4.74,1.74,1.29.98,2.35,2.22,3,3.99-1.83.43-3.31.44-4.65.43-1.33-.03-2.49-.11-3.45-.17-.98-.05-1.63-.13-2.52-.07-.91.05-2.1.52-3.78,1.4Z"/>
            <path class="cls-37" d="M600.79,155.74c.88-1.75,2.2-2.94,3.81-3.76,1.61-.78,3.65-1.18,5.85-.54,1.08.29,2.14.95,2.96,1.76.4.41.72.88,1.02,1.34.26.47.44.97.61,1.46.52,1.97.18,3.84-.84,5.48-1.44-1.35-2.39-2.5-3.3-3.22-.92-.73-1.49-.85-2.2-1.09-.72-.23-1.8-.44-3.14-.6-1.35-.19-2.89-.33-4.78-.84Z"/>
            <g class="cls-3">
              <path class="cls-33" d="M583.86,160.9c-.59,1.36-1.8,2.39-2.93,3.21-1.14.84-2.33,1.57-3.01,2.4-.33.41-.5.83-.57,1.32-.02.54.07,1.04.25,1.75.18.68.32,1.38.46,2.07.04.31.13.6.27.88.14.25.35.53.73.42-.11.14-.33.23-.55.2-.22-.03-.41-.13-.58-.25-.34-.24-.59-.57-.79-.92-.35-.62-.69-1.24-1-1.87-.08-.16-.16-.3-.24-.49l-.2-.58c-.16-.37-.17-.83-.24-1.26-.01-.92.35-1.86.91-2.54,1.14-1.33,2.53-1.89,3.78-2.49,1.28-.58,2.49-1.07,3.72-1.87Z"/>
            </g>
          </g>
          <path class="cls-37" d="M636.36,164.12c2.36-3.91,3.65-8.91,4.78-13.33,4.16-16.65-8.35-34.77-22.61-42.4-10.26-5.49-21.9-9.06-33.49-7.92-14.48,1.42-25.52,10.9-32.15,23.39-.07.14.95,2.64,1.67,4.6.36.98.64,1.82.67,2.16.75,8.82-6.66,17.71-11.6,24.36,2.24-3.02,6.48-5.38,9.02-8.43,2.7-3.24,4.5-7.1,5.62-11.23.94-3.43,1.98-6.83,3.09-10.23,1.23,1.32,3.24,1.66,5.02,1.32,1.77-.34,3.37-1.26,4.93-2.16,6.77-3.92,13.54-7.84,20.32-11.76-2.14,5.06-.32,11.49,4.16,14.66.1-2.21.2-4.42.3-6.64,1.68,8.18,5.81,14.6,13.18,18.78,5.72,3.24,12.18,5.52,16.74,10.25-.75-2.59-1.51-5.18-2.26-7.77,3.4,1.24,6.4,3.54,8.48,6.5-6.19,5.53-8.02,14.55-11.04,21.97-1.57,3.86-3.17,7.81-3.5,11.97.12-1.53,2.41-4.11,3.23-5.43,1.1-1.77,2.23-3.52,3.4-5.25,1.57-2.33,3.1-4.8,5.48-6.4.5-.33,7.46-2.76,6.56-1.02Z"/>
          <g class="cls-4">
            <path class="cls-37" d="M636.36,164.12c2.36-3.91,3.65-8.91,4.78-13.33,4.16-16.65-8.4-34.68-22.61-42.4-1.49-.81-22.47-12.44-24.22-1.88-.41,2.5,1.35,4.96,3.58,6.17s4.84,1.44,7.37,1.65c-2.67,2.53-3.19,6.74-2.09,10.24,1.1,3.51,3.55,6.42,6.17,9-.1-3.27.3-6.55,1.2-9.69,3.57,5.72,7.41,11.7,13.37,14.85-.63-2.03-1.06-4.12-1.27-6.23,4.51,3.95,9.18,8.11,11.41,13.67.51,1.28.89,2.64.79,4.01-.22,3.01-2.58,5.34-4.4,7.75-3.15,4.18-4.89,9.22-6.59,14.17,1.6-2.48,3.42-5.34,5.94-6.97.5-.33,7.46-2.76,6.56-1.02Z"/>
          </g>
          <g>
            <g>
              <g class="cls-3">
                <path class="cls-33" d="M543.44,134.29c.11-1.88.91-3.74,2.34-5.1.38-.32.82-.59,1.33-.72.51-.14,1.14-.05,1.59.31.45.36.68.86.85,1.32.16.47.29.93.39,1.4.41,1.9.34,3.84.17,5.72-.18,1.89-.54,3.77-1.06,5.61-.55,1.82-1.26,3.6-2.14,5.29-.22.43-.47.89-.89,1.28-.4.4-1.11.65-1.72.45-.6-.19-1.03-.62-1.28-1.13-.24-.52-.28-1.07-.25-1.57.19-1.96.85-3.8,1.84-5.43.52-.79,1.08-1.6,1.88-2.16.78-.57,1.89-.77,2.72-.28-.88-.39-1.88-.08-2.56.49-.7.58-1.18,1.39-1.62,2.2-.87,1.61-1.42,3.43-1.5,5.21-.04.86.34,1.65,1.01,1.85.62.21,1.17-.49,1.55-1.3.82-1.66,1.48-3.39,1.99-5.16.54-1.77.91-3.58,1.12-5.42.21-1.84.26-3.69-.02-5.49-.17-.87-.32-1.87-.88-2.38-.57-.53-1.53-.23-2.22.3-1.4,1.12-2.32,2.88-2.64,4.72Z"/>
              </g>
              <g class="cls-3">
                <path class="cls-33" d="M633.65,173.86c-.14-.86.3-1.67.39-2.48.07-.41.11-.82.07-1.21-.03-.4-.2-.73-.49-.78-.65-.09-1.45.37-2.11.79-.69.44-1.33.96-1.96,1.5-.62.54-1.24,1.12-1.76,1.7-.54.63-1.05,1.28-1.54,1.95-.99,1.33-1.9,2.72-2.69,4.17-.81,1.44-1.51,2.95-2.11,4.49-.33.78-.21,1.15.51,1.27.69.1,1.46-.14,2.15-.51,1.38-.74,2.44-2.11,2.9-3.66.26-.76.29-1.59.07-2.37-.23-.77-.73-1.5-1.5-1.86.82.25,1.45.97,1.75,1.77.32.81.37,1.73.16,2.59-.41,1.69-1.46,3.26-2.99,4.2-.76.46-1.65.82-2.65.71-.47-.04-1.12-.29-1.37-.91-.26-.6-.05-1.17.09-1.56.59-1.6,1.3-3.15,2.12-4.64.83-1.49,1.77-2.91,2.81-4.26.53-.67,1.07-1.32,1.64-1.95.61-.65,1.26-1.19,1.93-1.72.67-.52,1.37-1.02,2.12-1.45.37-.21.76-.41,1.18-.57.41-.14.87-.29,1.4-.15.26.09.48.3.59.53.1.24.14.47.13.7,0,.45-.08.87-.19,1.29-.17.84-.68,1.57-.65,2.42Z"/>
              </g>
            </g>
            <path class="cls-46" d="M545.29,153.17c.34-.62.54-1.4.21-2.02-1.28,1.32-2.67,1.53-4.32,2.05.36-.91.92-1.83,1.38-2.72.05-.09.1-.19.08-.29-.03-.17-.22-.26-.39-.28-.17-.02-.35.02-.52-.04-.28.99-.66,1.96-1.14,2.87-.42-.5-2.01-4.02-1.31-4.48-1.69,1.12-2.46,3.44-1.79,5.35-.42-.95-.83-1.9-1.25-2.85-.66,1.18-.82,2.63-.44,3.93.28.96.85,1.82,1.61,2.47.27.23.57.44.88.61-.02.05-.04.1-.06.14.21.08.42.18.62.29.02-.06.05-.12.06-.18,1.15.42,2.48.34,3.57-.23,1.09-.57,1.92-1.61,2.24-2.79-.85.67-1.93,1.05-3.02,1.04,1.48-.36,2.86-1.56,3.59-2.88Z"/>
            <path class="cls-46" d="M625.79,189.3c-1.41,1.17-2.82,1.23-4.51,1.58.45-.87,1.11-1.72,1.66-2.56.06-.09.12-.18.11-.28,0-.17-.19-.29-.36-.32-.17-.03-.35-.02-.51-.1-.38.96-.87,1.88-1.44,2.73-.37-.55-1.57-4.21-.82-4.6-1.8.93-2.82,3.16-2.35,5.13-.31-.99-.62-1.98-.93-2.97-.78,1.1-1.1,2.53-.86,3.86.18.98.65,1.9,1.33,2.62.21.23.46.43.71.61.28.14.55.29.79.45,1.08.5,2.36.55,3.47.12,1.14-.45,2.08-1.39,2.53-2.54-.92.58-2.03.83-3.11.71,1.51-.2,3.01-1.24,3.87-2.48.4-.58.69-1.33.42-1.98Z"/>
          </g>
        </g>
      </g>
      <g>
        <g>
          <path class="cls-27" d="M182.66,297.61c0,4.15-3.36,7.51-7.51,7.51s-7.51-3.36-7.51-7.51,3.36-7.51,7.51-7.51,7.51,3.36,7.51,7.51Z"/>
          <path class="cls-27" d="M254.6,197.01c0,2.31-1.87,4.17-4.17,4.17s-4.17-1.87-4.17-4.17,1.87-4.17,4.17-4.17,4.17,1.87,4.17,4.17Z"/>
          <ellipse class="cls-27" cx="200.11" cy="236.08" rx="54.61" ry="47.64" transform="translate(-99.57 158.82) rotate(-35.26)"/>
        </g>
        <g>
          <path class="cls-31" d="M140.98,231.78l22.86,18.84,9.84,12.75,4.01,7.38c.55,1,1.64,1.78,2.87,2.37,2.83,1.36,6.15-.54,6.46-3.67l.04-.45-5.81-11.98-3.9-8.24-2.41-10.24-6.07-17.76s-23.61-12.24-27.9,11Z"/>
          <path class="cls-31" d="M197.9,169.88l20.69,21.2,13.53,8.74,7.43,3.27c1.14.5,2.05,1.68,2.75,3.01,1.46,2.79-.33,6.19-3.45,6.6h0l-12.42-4.79-9.53-3.44-9.42-1.3-18.2-4.56s-14.18-22.5,8.62-28.72Z"/>
          <path class="cls-54" d="M167.2,257.08s9.37,5.57,12.55-4.93l-2.39-3.37-2.04-28.32,15.82-17.21,25.76,1.21,4.36,2.54s10.39-2.58,6.82-11.11l-9.49-4.81-20.69-21.2s-10.99-2.31-35.41,24.25c-24.42,26.56-21.51,37.65-21.51,37.65l22.86,18.84,3.35,6.46Z"/>
        </g>
        <path class="cls-28" d="M198.69,135.17l-1.52-22.79,10.75-7.42h0c-.33-2.13-2.4-3.53-4.5-3.06l-2.98.68-2.88-3.3-4.5-10.98c-.33-.82-1.18-1.3-2.06-1.17h0c-1.07.16-1.8,1.18-1.6,2.25l1.64,8.61-5.55-8.67c-.49-.76-1.4-1.13-2.28-.93h0c-1.27.29-1.99,1.65-1.51,2.87l2.65,6.7-4.97-6.06c-.63-.76-1.73-.92-2.55-.37h0c-.82.56-1.08,1.65-.6,2.51l3.02,5.41-3.22-2.15c-1.4-.93-3.3-.4-4,1.13h0l9.07,9.51-19.98,17.24s23.3,25.09,37.57,9.99Z"/>
        <g>
          <path class="cls-53" d="M170.67,120.18c14.61-2.22,27.88,7.37,31.6,22,2.2,8.65,9.3,26.2,6.14,38.81-1.97,7.83-16.52,21.37-16.52,21.37,0,0-4.59,19.54-9.52,25.82-8.72,11.11-22.65,12.59-31.4,16.58-12.68,5.78-27.25,1.19-33.38-11.11-3.49-7-4.46-16.52,1.41-29.05,15.63-33.41,20.92-44.72,32.75-70,4.43-9.48,11.65-13.33,18.93-14.43Z"/>
          <path class="cls-52" d="M116.32,231.2c-.2,0-.4-.13-.47-.33-.04-.12-4.16-11.86,2.68-26.47l20.39-43.59.91.42-20.39,43.59c-6.66,14.23-2.69,25.6-2.65,25.71.09.26-.04.55-.3.64-.06.02-.11.03-.17.03Z"/>
          <path class="cls-28" d="M138.95,206.14c4.96,1.91,10.83,3.83,16.83,5.01,13.2,2.57,27.02,1.55,32.94-11.07,8.36-17.8-6.09-32.88-17.29-41.29-.55-.41-1.13-.76-1.73-1.07-5.44-2.78-12.84-1.39-16.23,3.35l-20.59,28.77c-4.18,5.85-1.4,13.41,6.06,16.31Z"/>
          <path class="cls-16" d="M179.49,209.65c3.85-1.91,7.07-4.97,9.24-9.58,1.76-3.76,2.51-7.39,2.48-10.87-1.17,3.75-2.2,8.76-6.33,10.87,0,0-.18,5.41-5.39,9.58Z"/>
          <path class="cls-16" d="M120.1,213.52c4.96,1.91,25.53,5.66,42.79-1.23,17.18-8.79,30.91-51.27,6.81-54.57-5.44-2.78-12.84-1.39-16.23,3.35l-20.59,28.77c-4.18,5.85-20.25,20.79-12.79,23.68Z"/>
          <path class="cls-52" d="M161.08,241.48c-.21,0-.41-.14-.48-.35-.08-.26.06-.54.33-.63.15-.05,15.47-4.93,21.03-12.62,5.6-7.74,9.4-25.46,9.44-25.64.06-.27.33-.44.59-.39.27.06.44.32.39.59-.16.74-3.88,18.1-9.6,26.01-5.76,7.96-20.9,12.79-21.54,12.99-.05.02-.1.02-.15.02Z"/>
          <path class="cls-52" d="M188.73,200.57c-.09,0-.17-.02-.26-.07-.24-.14-.32-.45-.17-.68.1-.17,9.91-17.35-11.18-35.67-.21-.18-.23-.5-.05-.71.18-.21.5-.23.71-.05,21.74,18.88,11.49,36.76,11.38,36.94-.09.16-.26.24-.43.24Z"/>
        </g>
        <g>
          <path class="cls-28" d="M83.24,262.48c37.16-5.59,49.25-8.15,76.11-20.77,0,0-2.52-10.31-17.36-16.72-14.96-6.46-26.57-2.11-26.57-2.11l-14.87-1.22-16.44-14.32s-13.17,6.32-.87,55.13Z"/>
          <path class="cls-16" d="M101.41,259.63c-5.38.9-11.35,1.83-18.17,2.85-9.29-36.85-4.06-49.49-.93-53.46,10.42,7.08,18.98,16.85,18.98,16.85,0,0,6.38,19.5.12,33.76Z"/>
          <g>
            <path class="cls-28" d="M87.25,200.67l-16.53-24.78h0c-5.31,1.31-8.96,6.17-8.75,11.63l.43,10.89c.2,5.08-3.61,9.42-8.66,9.9l-47.58,4.45c-2.26.21-4.14,1.83-4.68,4.03h0c-.78,3.14,1.39,6.24,4.6,6.59l27.75,3.02c-.19,1.28-.35,2.52-.47,3.73l-29.32,6.17c-2.34.49-4.02,2.56-4.02,4.95h0c0,2.8,2.27,5.06,5.06,5.06h28.63c.2,1.05.43,2.06.7,3.02l-25.44,9.15c-2.37.85-3.37,3.66-2.07,5.82h0c.81,1.34,2.32,2.08,3.87,1.91l32.15-3.58c.6.47,1.23.9,1.87,1.31l-19.7,11.54c-2.52,1.48-3.02,4.92-1.02,7.05h0c1.24,1.32,3.14,1.78,4.85,1.18l46.19-16.43v-.02c2.01-.42,26.57-13.67,26.86-33.69.3-20.02-14.69-32.87-14.69-32.87Z"/>
            <path class="cls-18" d="M63.62,212.95s3.84,27.07,18.98,27.25"/>
            <path class="cls-18" d="M59.46,258.22s2.79-17.11,10.02-27.53"/>
            <line class="cls-18" x1="6.15" y1="212.75" x2="53.72" y2="208.29"/>
            <line class="cls-18" x1="4.02" y1="236.28" x2="33.34" y2="230.11"/>
            <line class="cls-18" x1="8.95" y1="258.46" x2="34.39" y2="249.32"/>
            <path class="cls-18" d="M70.71,175.88l16.53,24.78s22.44,20.71,11.2,45.51"/>
          </g>
        </g>
        <g>
          <path class="cls-43" d="M122.51,126.01c2.7-1.78,5.63-3.56,8-5.77,2.11-1.97,3.01-4.65,4.25-7.32.27-.57.54-1.16.96-1.63.5-.57,1.19-.94,1.89-1.24,2.56-1.09,5.5-1.27,8.18-.51,2.61.74,4.88,2.31,7.11,3.86-1.51-2.49-4.15-4.15-6.94-4.99-2.79-.84-5.75-.93-8.66-.85,4.29-1.13,8.83-1.28,13.18-.43-1.47-1.99-3.78-3.33-6.23-3.62-2.45-.29-5.02.48-6.91,2.07,2.41-2.03,2.19-6.92,2.37-9.71.27-4.18-.99-8.4-3.19-11.97-2.35-3.8-6.19-7.2-10.68-8.07-2.78-.54-10.9.62-11.61,4.24.52-2.66,1.53-5.22,2.95-7.53-3.25,1.73-5.68,4.95-6.44,8.55-.49-2.46-1.43-4.82-2.77-6.95-.74,2.12-.18,4.64,1.39,6.24-3.21-1.64-7.25-3.25-10.2-1.17,4.38-.1,8.77,1.69,11.82,4.82-5.55-2.15-11.85-1.95-17.48-.01-5.62,1.93-10.59,5.52-14.66,9.85-2.25,2.39-4.26,5.03-5.58,8.03-2.18,4.96-2.32,10.73-.65,15.89,1.2,3.71,3.13,7.32,5.77,10.21,1.26,1.38,5.37,5.13,7.31,4.98-4.23.32-8.56-1.76-10.95-5.26-.15,2.54,1.7,5.06,4.17,5.68-3.41-.26-6.74-1.56-9.44-3.66,1.88,2.36,4,4.72,6.82,5.8,4.03,1.53,8.34.14,12.25-1.07-2.15,1.05-3.77,2.4-5.31,4.26-4.72,5.72-6.87,13.48-5.76,20.81.77-7.67,4.32-15.02,9.83-20.4-2.86,4.44-4.36,9.74-4.27,15.02.6-5.43,3.49-10.51,7.65-14.02,2.21-1.86,4.26-3.15,7.08-3.81,8.93-2.08,17.01-5.22,24.72-10.32Z"/>
          <path class="cls-17" d="M122.94,126.73c.92-.56,1.83-1.15,2.71-1.78,4.29-3.09,6.91-7.31,9.11-12.03.27-.57.54-1.16.96-1.63.5-.57,1.19-.94,1.89-1.24,2.56-1.09,5.5-1.27,8.18-.51,2.61.74,4.88,2.31,7.11,3.86-1.51-2.49-4.15-4.15-6.94-4.99-2.79-.84-5.75-.93-8.66-.85,4.29-1.13,8.83-1.28,13.18-.43-1.47-1.99-3.78-3.33-6.23-3.62-2.45-.29-5.02.48-6.91,2.07,2.41-2.03,2.19-6.92,2.37-9.71.27-4.18-.99-8.4-3.19-11.97-2.35-3.8-6.19-7.2-10.68-8.07-2.78-.54-10.9.62-11.61,4.24.52-2.66,1.53-5.22,2.95-7.53-5.23,2.78-6.49,10.77-5.31,16.1-.74-3.35-9.1-3.03-11.35-2.61-4.65.86-8.99,3.55-11.67,7.47-3.56,5.2-1.7,13.18,3.01,17.13,3.4,2.84,7.95,4.02,12.38,4.03-7.53,1.53-16.28-.34-20.81-6.55,1.71,6.54,7.99,11.6,14.74,11.88-4.61,1.14-9.52,2.27-14.04.81,5.57,3.58,13.33,3.36,18.69-.54-5.71,6.17-10.44,13.09-13.93,20.75,6.39-3.72,13.57-5.82,20.55-8.28,4.64-1.63,9.28-3.46,13.5-6.01Z"/>
          <path class="cls-28" d="M175.16,149.61c-.6-1.1-1.24-2.17-1.93-3.22,1.98,1.23,4.36-.03,5.48-1.82,1.06-1.7,1.11-5.33.92-7.28-.47-4.85-2.44-9.63-4.77-13.87-2.57-4.66-6.32-9.19-11.52-10.33-5.12-1.12-10.41,4.38-6.76,9.21-6.24-8.43-15.13-16.04-25.4-18.75-8.05-2.12-16.58-1.25-24.25,1.88-13.67,5.58-25.41,16.59-29.37,31.08-1.77,6.5-1.95,13.41-.61,20,1.6,7.85,5.41,14.79,11.04,20.43-2.8-1.3-6.46-1.47-8.71.66-1.66,1.57-2.18,4.06-1.86,6.32.46,3.2,2.16,6.86,4.38,9.18,3.44,3.59,7.86,6.68,12.43,8.64,3.19,1.37,15.11,3.4,12.81-3.54,1.18,3.56,6.92,7.03,9.94,8.81,4.2,2.48,8.63,4.44,13.53,4.67,10,.47,19.89-1.7,29.59-3.83,2.17-.48,4.43-.99,6.16-2.39,1.37-1.1,2.29-2.66,3.18-4.17,2.09-3.55,3.72-7.41,5.52-11.12,1.43-2.93,2.86-5.88,3.69-9.02,2.76-10.42,1.59-22.12-3.52-31.53Z"/>
          <g class="cls-45">
            <path class="cls-16" d="M108.01,190.48c-.51,1.45-.54,2.9.15,4.29.61,1.24,1.74,2.14,2.91,2.87,3.26,2.04,7.43,3.03,11,1.6,3.1-1.24,5.27-4.05,6.97-6.92,1.62-2.72,3.73-5.96,3.5-9.24-.27-3.91-2.15-7.49-6.64-6.79-1.75.27-3.35,1.11-4.87,2.02-3.26,1.96-11.21,7.02-13.03,12.17Z"/>
            <path class="cls-16" d="M149.31,157.33c-1.78,3.28-3.18,7.77,1.27,9.63,2.09.87,4.47.59,6.68.09,4.12-.93,8.95-2.68,11.22-6.51.99-1.68,1.36-3.65,1.64-5.58.27-1.85.46-3.74.15-5.58-1.59-9.38-10.37-3.75-14.35-.39-2.66,2.25-4.96,5.28-6.61,8.33Z"/>
          </g>
          <g>
            <g>
              <path class="cls-10" d="M155.8,172.98c.69-.68.98-1.44.52-2.3,1.69,3.15,1.94,7.02.69,10.36-2.72,7.22-15.06,13.22-21.91,8.21,2.93-1.14,4.61-3.13,6.35-5.68,1.54-2.25,3.29-2.68,5.94-2.25,0-1.57.08-3.31,1.18-4.43.9-.92,5.43-2.13,7.23-3.91Z"/>
              <g class="cls-14">
                <path class="cls-35" d="M133.57,189.15c1.44-.28,2.92-.17,4.34-.32.71-.06,1.41-.17,2.05-.41.64-.24,1.18-.63,1.68-1.12.5-.49,1-1.05,1.62-1.52.61-.47,1.28-.85,1.99-1.15.72-.29,1.42-.49,2.24-.6l1.1-.04c.34-.02.69-.06.94-.15.13-.04.21-.1.19-.09-.03.11.05-.17.08-.35.09-.38.17-.76.32-1.11.13-.36.27-.72.45-1.05.16-.34.34-.68.54-.99.79-1.27,1.69-2.43,2.58-3.56.88-1.14,1.72-2.31,2.25-3.62.58-1.29.7-2.77.39-4.2.54,1.36.53,2.94.07,4.36-.47,1.43-1.27,2.7-2.09,3.91-.81,1.22-1.7,2.36-2.39,3.59-.18.3-.35.61-.49.93-.16.31-.29.63-.4.96-.14.32-.2.65-.27.98-.06.17,0,.27-.22.69-.22.32-.49.42-.7.49-.85.26-1.62.18-2.29.21-.62.08-1.34.27-1.97.51-.64.24-1.25.57-1.81.97-.55.4-1.05.9-1.63,1.39-.56.49-1.25.93-2,1.15-.74.22-1.49.29-2.23.3-1.48,0-2.91-.22-4.37-.16Z"/>
              </g>
            </g>
            <g>
              <path d="M150.72,147.05c-.43,2.36-3.25,5.19-5.8,4.01-3.45-1.6-3.77-6.91-.87-9.13,2.37-1.82,6.28,1.02,6.69,3.6.08.51.07,1.02-.02,1.52Z"/>
              <path d="M112,176.64c2.37.22,5.77-1.72,5.28-4.48-.67-3.72-5.67-5.45-8.52-3.27-2.33,1.78-.59,6.28,1.78,7.36.46.21.96.34,1.46.38Z"/>
            </g>
            <g>
              <path class="cls-46" d="M96.66,172.3c-1.6-2.14-2.05-5.03-1.59-7.75.51-2.71,1.89-5.38,4.12-7.31,2.2-1.93,5.27-3.1,8.19-2.8,1.48.1,2.75.52,3.93,1.09,1.17.58,2.23,1.29,3.22,2.19-2.58.66-5.01.78-6.81,1.42-1.82.54-3.24,1.49-4.6,2.62-1.35,1.15-2.53,2.63-3.63,4.34-1.07,1.74-1.98,3.68-2.85,6.2Z"/>
              <path class="cls-46" d="M131.68,143.19c-1.51-2.22-1.86-5.06-1.4-7.74.48-2.69,1.8-5.3,3.89-7.31,2.05-2.02,5.04-3.34,8.02-3.22,2.97.1,5.63,1.58,7.08,3.8-2.68-.03-4.79.22-6.51.89-1.72.65-3.12,1.62-4.45,2.88-1.31,1.26-2.51,2.77-3.59,4.52-1.1,1.76-2.05,3.71-3.03,6.18Z"/>
            </g>
            <g class="cls-5">
              <path class="cls-35" d="M120.3,148.5c2.64,1.03,5.26,2.56,6.99,5.13.87,1.27,1.35,2.85,1.41,4.43.02.78-.09,1.61-.22,2.28-.12.69-.18,1.23-.08,1.78.15,1.11.84,2.18,1.78,2.88.99.77,2.07,1.14,3.33,1.01,1.26-.12,2.62-.61,4.06-.88.73-.1,1.44-.25,2.23-.14.75.11,1.52.54,1.78,1.23-.46-.57-1.18-.72-1.81-.68-.63.05-1.31.3-1.94.53-1.29.46-2.54,1.16-4.09,1.48-3.26.73-6.74-1.73-7.32-5.12-.14-.86-.01-1.75.13-2.44.16-.71.22-1.29.25-1.93.04-1.25-.27-2.49-.86-3.64-1.22-2.32-3.4-4.18-5.65-5.92Z"/>
            </g>
          </g>
          <g>
            <path class="cls-24" d="M111.78,205.42c.49,3.7-3.23,6.22-6.64,5.26-5.24-1.49-5.7-8.05-1.22-10.75,2.05,3.09,3.92,6.01,6.27,8.96,2.71,3.4-1.43,1.85,1.2,5.31"/>
            <path class="cls-24" d="M176.83,149.09c2.55,2.93,6.44,2.19,7.41-1.82.57-2.38-.45-5.18-2.83-6.11-1.59-.62-4.13-.8-5.33.74-1.44,1.85,1.9,3.92,3.27,5.44,3.96,4.39.21,4.4,3.99,8.95"/>
            <g>
              <g class="cls-9">
                <path class="cls-35" d="M86.97,190.82c-1.76-.96-3.17-2.58-3.83-4.57-.13-.51-.2-1.05-.08-1.6.1-.55.46-1.11,1.01-1.37.54-.27,1.13-.26,1.65-.22.52.06,1.02.15,1.52.26,2.01.46,3.84,1.42,5.58,2.44,1.74,1.03,3.39,2.23,4.91,3.56,1.51,1.36,2.89,2.85,4.13,4.45.31.41.64.85.83,1.42.21.56.12,1.35-.34,1.83-.44.48-1.05.7-1.65.71-.6,0-1.14-.21-1.62-.46-1.8-1.06-3.27-2.53-4.4-4.23-.53-.86-1.05-1.76-1.23-2.79-.19-1,.11-2.17.96-2.74-.78.66-.94,1.77-.7,2.69.24.94.8,1.77,1.38,2.56,1.15,1.57,2.66,2.93,4.34,3.82.81.43,1.77.43,2.27-.14.5-.52.07-1.39-.55-2.12-1.22-1.54-2.59-2.97-4.07-4.27-1.46-1.32-3.04-2.5-4.72-3.53-1.68-1.04-3.44-1.93-5.3-2.47-.92-.23-1.95-.54-2.71-.22-.78.32-.93,1.39-.72,2.3.45,1.86,1.73,3.54,3.36,4.68Z"/>
              </g>
              <g class="cls-9">
                <path class="cls-35" d="M165.99,121.87c-.89-.26-1.47-1.05-2.2-1.51-.36-.25-.74-.49-1.13-.62-.4-.15-.8-.14-.99.12-.39.59-.31,1.57-.2,2.41.12.86.32,1.72.55,2.57.24.84.51,1.7.84,2.47.36.8.76,1.6,1.17,2.37.83,1.56,1.76,3.06,2.8,4.48,1.02,1.44,2.16,2.79,3.37,4.07.59.67,1.06.73,1.5.08.41-.63.53-1.49.49-2.32-.09-1.68-.94-3.31-2.22-4.47-.61-.6-1.4-1-2.26-1.14-.85-.13-1.78.02-2.47.61.61-.67,1.59-.95,2.5-.87.92.06,1.83.43,2.55,1.03,1.44,1.16,2.46,2.88,2.67,4.78.09.93.04,1.95-.51,2.86-.25.43-.78.93-1.47.9-.68-.02-1.13-.48-1.44-.79-1.27-1.29-2.44-2.68-3.51-4.14-1.06-1.47-2-3.02-2.83-4.63-.41-.81-.79-1.63-1.14-2.46-.35-.88-.57-1.75-.78-2.63-.2-.89-.36-1.78-.44-2.69-.04-.46-.05-.92-.02-1.39.05-.46.12-.97.48-1.41.2-.21.49-.32.77-.33.27.01.51.08.73.18.44.19.8.47,1.15.76.73.54,1.21,1.36,2.04,1.72Z"/>
              </g>
            </g>
          </g>
          <path class="cls-43" d="M86.6,176.77c1.77,1.18,3.73,2.2,5.25,3.64,5.16,4.86,10.5,9.4,13.73,15.85-.69-2.78-2.31-5.23-3.92-7.59-2.06-3.02-4.17-6.02-6.32-8.98-1.92-2.64-4.57-4.91-6.08-7.8,1.89-1.72,1.99-4.75,1.07-7.13-1.43-3.69-4.96-6.4-5.96-10.24.67,2.56,3.35,3.96,5.03,6.01,2.03,2.47,2.51,6.11,1.2,9.03,1.42-2.64,2.01-5.95.63-8.61-1.43-2.76-4.62-4.24-6.14-6.95-1.98-3.54-.08-7.26,1.94-10.29,2.47-3.72,5.86-6.59,9.78-8.59,1.9-.97,3.71-1.9,5.82-2.37.47-.11,5.92-.71,5.87-.27.92-9.23,7.88-17.47,16.43-20.84,2-.79,4.31-1.17,6.46-1.06,2.08.1,3.47,1.73,4.56,3.4,1.07,1.65,2.06,3.49,3.78,4.44,1.36.76,3.09.82,4.51.18-1.84.88-4.1-.13-5.49-1.62-1.4-1.49-2.25-3.41-3.52-5.02,1.28,1.19,2.41,2.55,3.75,3.68,1.34,1.13,2.95,2.05,4.7,2.14,1.75.09,3.63-.84,4.24-2.48-.69.72-1.81.79-2.79.67-3.08-.38-5.92-2.3-7.44-5,2.12,1.82,4.57,3.76,7.36,3.55.35-.03.71-.09,1.06-.05,1.96.23,2.64,3.19,3.54,4.59,1.46,2.26,2.99,4.48,4.6,6.65,3.15,4.25,6.56,8.31,10.22,12.14-2.36-2.47-3.94-6.74-5.25-9.85-1.25-2.97-4.04-6.39-3.81-9.74.04-.56.16-1.12.07-1.67-.07-.41-.25-.8-.44-1.17-1.93-3.78-4.99-5.68-8.03-8.49-2.38-2.2-4.77-4.42-7.49-6.18-12.16-7.88-27.28-3.78-38.74,3.45-11.21,7.07-20.04,18.11-24.21,30.71-4.31,13.02-1.78,28.91,7.21,39.49.8.94,1.78,1.69,2.83,2.39Z"/>
          <g class="cls-8">
            <path class="cls-43" d="M132.95,108.42c2.04,2.34,3.65,5.2,6.02,7.21,1.34,1.13,2.95,2.05,4.7,2.14,1.75.09,3.63-.84,4.24-2.48-.69.72-1.81.79-2.79.67-3.08-.38-5.92-2.3-7.44-5,2.12,1.82,4.57,3.76,7.36,3.55.35-.03.71-.09,1.06-.05,1.96.23,2.64,3.19,3.54,4.59,1.46,2.26,2.99,4.48,4.6,6.65,3.15,4.25,6.56,8.31,10.22,12.14-2.36-2.47-3.94-6.74-5.25-9.85-1.25-2.97-4.04-6.39-3.81-9.74.04-.56.16-1.12.07-1.67-.07-.41-.25-.8-.44-1.17-1.93-3.78-4.99-5.68-8.03-8.49-2.38-2.2-4.77-4.42-7.49-6.18-12.16-7.88-27.28-3.78-38.74,3.45-4.11,2.59-7.95,5.5-10.97,9.34-3.14,3.99-5.48,8.53-7.75,13.05,1.73-2.44,3.62-4.76,5.68-6.94.96-1.02,1.96-2.03,3-2.97.81-.73,2.57-1.65,3.09-2.58-1.37,2.47-2.15,5.26-2.24,8.08,2.43-3.98,5.48-7.57,9.02-10.61-1.39,2.7-1.68,5.95-.79,8.86-.35-1.14,2.55-4.74,3.21-5.64,1.38-1.88,2.99-3.6,4.78-5.1,3.39-2.84,7.74-5.45,12.17-6.01,3.75-.47,7.8.37,10.84,2.69.78.6,1.49,1.3,2.14,2.05Z"/>
          </g>
        </g>
      </g>
      <g>
        <g>
          <path class="cls-27" d="M412.51,229.62c.84,3.74-2.98,7.79-8.55,9.05-5.57,1.26-10.76-.75-11.61-4.49-.84-3.74,2.98-7.79,8.55-9.05,5.57-1.26,10.76.75,11.61,4.49Z"/>
          <path class="cls-27" d="M275.26,155.58c1.32,1.4,1.26,3.6-.13,4.92-1.4,1.32-3.6,1.26-4.92-.13-1.32-1.4-1.26-3.6.13-4.92,1.4-1.32,3.6-1.26,4.92.13Z"/>
          <ellipse class="cls-27" cx="358.92" cy="183.34" rx="40.25" ry="93.33" transform="translate(167.81 538.18) rotate(-88.75)"/>
        </g>
        <g>
          <g>
            <path class="cls-29" d="M346.01,190.61c-.12-1.9-.39-3.79-.79-5.64-.18-.83-.31-1.88-1.13-2.12-.85-.25-1.88-.16-2.76-.13-.95.03-1.9.12-2.84.28-.58.1-1.47.41-1.94-.15-.52-.63-1.31.23-.97.89-.72,3.43-1.07,7.19-.54,10.68.46,3.05,2.19,6.18,5.01,6.65,2.78.47,4.97-2.17,5.67-5.11.41-1.73.41-3.58.29-5.36Z"/>
            <path class="cls-29" d="M380.95,190.61c-.12-1.9-.39-3.79-.79-5.64-.18-.83-.3-1.88-1.13-2.12-.85-.25-1.88-.16-2.76-.13-.95.03-1.9.12-2.84.28-.58.1-1.47.41-1.94-.15-.52-.63-1.31.23-.97.89-.72,3.43-1.07,7.19-.54,10.68.46,3.05,2.19,6.18,5.01,6.65,2.78.47,4.97-2.17,5.67-5.11.41-1.73.41-3.58.29-5.36Z"/>
            <path class="cls-54" d="M352.4,161.65c0-.8.01-1.6.01-2.4,0-1.5-2.33-1.48-2.35,0-.03,0-.06,0-.1-.01-.16-.07-.34-.11-.56-.1-.02,0-.03,0-.05,0-1.72-.26-3.45-.51-5.19-.58-1.93-.09-3.93.29-5.84-.02-1.84-.3-3.56-1.11-5.39-1.48-1.87-.38-3.78-.5-5.69-.4-.06,0-.12.01-.17.02-5.57-1.65-10.92-4.06-15.86-7.19-.03-.02-.06-.04-.09-.05-.1-.34-.21-.67-.31-1.01-.43-1.45-2.69-.8-2.26.65,2.28,7.7,5.73,15.06,10.2,21.74,2.23,3.33,4.72,6.5,7.43,9.46.55.6,1.1,1.21,1.67,1.81.09.12.18.25.27.37,1.06,1.42,2.12,3.05,3.54,4.14,1.38,1.05,3.07,1.41,4.75,1.63,1.99.26,4.01.38,6.02.28,2.01-.09,4.14-.5,5.73-1.64.46-.18.91-.39,1.34-.63.28-.15.44-.36.52-.59.18-.14.32-.35.39-.63,1.76-7.65,2.43-15.53,1.99-23.37Z"/>
            <path class="cls-54" d="M400.72,147.41c-.05.15-.09.31-.14.46-.39-.55-1.19-.82-1.79-.19-2.06,2.16-4.66,3.63-7.39,4.8-2.95,1.27-6.01,2.34-9.05,3.38-6.48,2.22-13.39,4.01-20.26,2.73-.29-.05-.55,0-.76.1-.7-.47-1.91-.16-1.86.94.3,6.93,1.28,13.82,2.94,20.55.37,1.51.68,3.13,1.34,4.54.63,1.33,1.76,2.09,3.15,2.47,2.87.8,6,.93,8.94.55,3.39-.44,6.64-1.54,9.57-3.29.25-.15.41-.34.49-.56.02-.02.04-.04.06-.07,9.23-11.5,13.29-24.07,17.46-37.81.44-1.45-2.26-.06-2.7,1.39Z"/>
            <path class="cls-39" d="M276.38,119.35l-4.91,4.25s-20.94-9.66-29.19-21.57c-8.25-11.91-16.02-25.68-1.86-37.2,14.15-11.52,41.58,4.07,59,16.08,0,0,12.17,3.32,18.51,10.56,6.34,7.24-6.96,12.31-6.96,12.31l6.29.48s14.26,20.13,37.97,18.19c23.71-1.94,32.66-15.09,36.28-19.19,0,0-.7-9.8,18.82-21.15,0,0,16.01-12.63,27.23-20.64,11.22-8.01,23.52-4.71,28.26,4.24,4.74,8.95,4.47,22.93-27.04,52.66l-4.76-3.81-9.61,10.39-6.93,17.33s-7.21,15.67-33.29,22.53c0,0-18.81,2.89-24.94,2.87s-24.25-1.3-24.25-1.3c0,0-24.86-3.6-34.62-13.99-9.77-10.38-22.63-32.5-22.63-32.5l-1.36-.57"/>
            <path class="cls-41" d="M284.64,131.44c-.79-1.45-1.68-2.85-2.65-4.19-.07-.09-.14-.17-.22-.24.03-.32.06-.65.09-.97.08-.79-.54-1.16-1.17-1.1-.77-1.53-1.55-3.07-2.52-4.48-.12-.18-.27-.31-.43-.39.44-1.02-.99-2.2-1.95-1.26l-2.09,2.07c-.6.6-1.48,1.22-1.79,2.03-.57,1.51,1.54,2.98,2.5,3.86,2.64,2.4,5.65,4.36,8.64,6.3,1.04.67,2.11-.66,1.58-1.63Z"/>
            <path class="cls-41" d="M437.99,117.37c-1.38-.65-2.66-1.44-3.83-2.42-.47-.39-1.22-.48-1.66.02-2.26,2.57-4.52,5.15-6.79,7.72-1.9,2.16-4.22,4.39-4.24,7.46,0,.23.07.43.18.6-.09.08-.18.16-.27.24-1.13,1,.56,2.64,1.68,1.64,5.06-4.48,10.13-8.95,15.19-13.43.54-.48.39-1.53-.26-1.84Z"/>
            <g>
              <path class="cls-32" d="M348.18,139.98s3.73,10.14,7.94,16.25c4.21,6.12,2.66,7.82,4.92,7.67,2.26-.15-.8-2.32-1.4-4.39-.6-2.07-6.05-12.27-6.06-17.61s-5.74-5.46-5.4-1.92Z"/>
              <path class="cls-32" d="M373.85,138.31s-2.38,10.53-5.76,17.15-1.62,8.1-3.88,8.24c-2.26.14.49-2.4.82-4.54.32-2.13,4.4-12.95,3.72-18.25-.68-5.3,4.98-6.16,5.1-2.61Z"/>
              <path class="cls-29" d="M360.27,143.74s-48.5-14.06-61.02-36.32c-12.53-22.26,21.79-41.82,59.81-42.08,38.03-.26,57.77,22.16,57.1,32.03-.67,9.87-10.62,28.9-55.89,46.37Z"/>
              <path class="cls-32" d="M359.29,141.92c-.97.24-9.55-1.94-15.04-7.47-5.49-5.53-33.89-19.81-35.19-27.9-1.3-8.09,13.87-22.56,25.83-24.45,11.96-1.89,55.57,5.61,66.25,10.89,10.68,5.27,1.23,16.96-4.38,19.48-5.62,2.52-30.47,27.71-37.47,29.45Z"/>
            </g>
          </g>
          <g>
            <path class="cls-49" d="M396.56,87.35s3.46-7.76,10.58-3.61c7.12,4.15,5.49,21.63-.61,28.55-5.06,5.74-15.87,6.5-15.87,6.5l5.9-31.45Z"/>
            <g>
              <path class="cls-41" d="M315.98,89.48s-6.92-10.41-15.47-6.81c-8.55,3.6-6.1,33.91,14.24,35.92,0,0,4.88.52,6.72-5.12,0,0,24.16,25.5,41.05,23.63,16.89-1.86,34.04-16.02,37.29-25.83,1.63-4.91,1.17-12.09.31-18.04-1.3-8.93.78-13.74-.26-27.2l1.05-9.22-53.39-16.53-19.94,9.21-10.17,30.89-1.42,9.09Z"/>
              <path class="cls-55" d="M316.11,106.94c0,.11.02.2.02.31,0,0,0-.12-.02-.31Z"/>
              <path class="cls-12" d="M361.88,137.27c11.94-1.32,23.56-9.62,31.58-16.38-.29.13-18.33,11.45-30.93,13.28-12.7,1.84-38.9-17.23-38.9-17.23,0,0,21.37,22.19,38.26,20.33Z"/>
              <g class="cls-7">
                <path class="cls-30" d="M304.52,95.68c0-.83.11-1.68.38-2.48.13-.4.29-.8.48-1.18.21-.36.33-.79.82-1.09.26-.14.55-.12.78-.06.24.05.42.16.62.24l.6.27.53.39c.72.51,1.27,1.21,1.75,1.93.94,1.46,1.45,3.12,1.82,4.77.36,1.66.54,3.34.62,5.03.06,1.69.03,3.37-.17,5.06-.05.41-.11.9-.41,1.38-.3.5-.92.77-1.44.75-.53,0-1.05-.23-1.41-.55-.37-.32-.64-.69-.86-1.08-.85-1.6-.96-3.39-.7-5.08.16-.84.44-1.67.91-2.39.46-.72,1.14-1.32,1.94-1.57-1.54.75-2.23,2.44-2.37,4.02-.16,1.59.07,3.3.87,4.6.41.65,1,1.18,1.6,1.15.31-.01.54-.13.68-.36.14-.23.2-.6.24-1.01.16-1.62.19-3.27.11-4.91-.06-1.64-.23-3.28-.55-4.88-.31-1.6-.78-3.17-1.56-4.57-.4-.68-.86-1.35-1.48-1.83l-.46-.37-.52-.27c-.34-.2-.73-.36-.96-.25-.26.1-.49.51-.71.84-.21.35-.4.71-.56,1.09-.32.76-.53,1.56-.63,2.39Z"/>
              </g>
              <g class="cls-7">
                <path class="cls-30" d="M411.19,93.19c.05-.87-.09-1.74-.47-2.5-.38-.73-1.04-1.37-1.79-1.56-.75-.2-1.51.21-2.05.8-.55.58-.94,1.36-1.35,2.11-1.57,3.03-2.48,6.39-2.58,9.79-.07,1.7.06,3.4.39,5.07.17.78.34,1.87.71,1.98.13.08.45-.06.75-.32.3-.24.56-.54.79-.87.45-.67.75-1.47,1.02-2.28.27-.81.47-1.64.46-2.46,0-.82-.27-1.65-.94-2.16-.62-.52-1.6-.77-2.34-.26.67-.62,1.77-.47,2.5.05.38.25.7.6.91,1.02.21.41.32.87.36,1.33.07.92-.12,1.82-.34,2.67-.23.85-.5,1.71-.97,2.51-.23.4-.53.78-.89,1.1-.18.16-.37.31-.63.43-.25.12-.62.2-.96.07-.34-.12-.57-.38-.71-.61-.15-.24-.23-.47-.3-.71l-.33-1.3c-.37-1.74-.51-3.52-.46-5.3.13-3.55,1.12-7.07,2.91-10.13.46-.75.89-1.53,1.57-2.19.64-.64,1.66-1.14,2.63-.82.92.34,1.54,1.1,1.89,1.92.34.84.39,1.75.23,2.61Z"/>
              </g>
            </g>
            <g>
              <path class="cls-51" d="M317.92,29.48s-1.53-31.83-15.37-29.34c0,0-4.87,1.65-2.4,10.34.29,1.02-.75,2-1.72,1.59-8.64-3.59-35.88-11.82-49.68,19.48-1.65,3.74-1.01,8.07,1.78,10.75,4.11,3.95,12.47,7.84,29.01,4.12,1.46-.33,2.58,1.1,1.9,2.46-2.74,5.54-7.27,16.24-3.1,19.41,3.46,2.64,9.62-3.48,13.93-8.69,3.75-4.55,8.13-8.54,13.05-11.74l.09-.06,12.52-18.33Z"/>
              <path class="cls-54" d="M317.92,29.48s-1.53-31.83-15.37-29.34c0,0-4.87,1.65-2.4,10.34.29,1.02-.75,2-1.72,1.59-8.64-3.59-35.88-11.82-49.68,19.48-1.65,3.74-1.01,8.07,1.78,10.75,4.11,3.95,12.47,7.84,29.01,4.12,1.46-.33,2.58,1.1,1.9,2.46-2.74,5.54-7.27,16.24-3.1,19.41,3.46,2.64,9.62-3.48,13.93-8.69,3.75-4.55,8.13-8.54,13.05-11.74l.09-.06,12.52-18.33Z"/>
              <path class="cls-39" d="M319.29,28.76c-17.09,0-23.42,20.57-18.69,28.66,2.91-2.97,1.23-7.28,4.71-9.55l.09-.06,13.9-7.52s.36-8.59,0-11.54Z"/>
              <path class="cls-44" d="M300.51,82.67s-1.83-21.15,1.22-30.75c3.05-9.6,7.73-22.97,29.51-26.98,0,0,13.84-15.78,42.73-8.99,28.9,6.8,45.79,35.4,40.5,55.16,0,0-31.34,6.85-73.46-21.62,0,0-8.98,7.09-13.62,10.73-1.53,1.2-2.44,3.03-2.47,4.94-.08,5.7-.6,18.09-3.35,25.04,0,0,.62,1.84-3.65,1.28,0,0-9.88-12.55-17.41-8.81Z"/>
              <path class="cls-54" d="M300.51,82.67s-1.83-21.15,1.22-30.75c3.05-9.6,7.73-22.97,29.51-26.98,0,0,13.84-15.78,42.73-8.99,28.9,6.8,45.79,35.4,40.5,55.16,0,0-31.34,6.85-73.46-21.62,0,0-8.98,7.09-13.62,10.73-1.53,1.2-2.44,3.03-2.47,4.94-.08,5.7-.6,18.09-3.35,25.04,0,0,.62,1.84-3.65,1.28,0,0-9.88-12.55-17.41-8.81Z"/>
              <path class="cls-2" d="M300.1,75.74c.16,4.08.41,6.94.41,6.94,7.53-3.74,17.41,8.81,17.41,8.81-3.64-12.87-11.36-15.82-17.81-15.75Z"/>
              <path class="cls-1" d="M351.4,15.01c21.72,1.04,53.96,10.55,63.07,56.01.83-3,1.12-6.27.9-9.7-1.18-18.37-17.01-39.62-41.39-45.36-8.96-2.11-16.47-2.04-22.58-.95Z"/>
              <path class="cls-1" d="M248.74,31.55c-.75,1.7-1,3.52-.82,5.25.41-.84,13.01-26.07,40.22-27.74h0c-11.94-2.14-29.28-.46-39.4,22.49Z"/>
            </g>
            <g>
              <g>
                <path class="cls-43" d="M363.44,104c3.56,1.73,7.78,1.69,11.34-.23.04-.02.09-.05.13-.07,4.39-2.39,6.98,1.79,5.2,7.53-1.79,5.75-10.23,7.26-14.78,6.39-4.55-.87-13.55-3.42-11.16-11.46,1.45-4.87,5.95-3.78,9.27-2.16Z"/>
                <path class="cls-38" d="M353.79,108.1c-.52,6.53,7.37,8.73,11.53,9.53,2.13.41,5.1.28,7.86-.54-5.86-9.39-14.73-9.63-19.38-8.98Z"/>
                <path class="cls-42" d="M353.79,108.1c-.52,6.53,7.37,8.73,11.53,9.53,2.13.41,5.1.28,7.86-.54-5.86-9.39-14.73-9.63-19.38-8.98Z"/>
                <path class="cls-40" d="M358.74,106.27c2.46,1.49,7.91,4.18,13.92,3.12,1.27-.22,2.27-1.2,2.49-2.47l.62-3.6c-.28.1-.57.23-.87.39-.04.02-.09.05-.13.07-3.56,1.91-7.78,1.96-11.34.23-1.93-.94-4.25-1.69-6.14-1.21,0,.32,0,.67.02.99.03,1.02.56,1.96,1.43,2.49Z"/>
              </g>
              <path d="M347.54,87.29c-.3.75-.81-2.19-4.53-1.85-3.22.3-4.3,4.1-4.69,1.18-.2-1.49.89-2.9,2.24-3.57,3.66-1.81,8.12,1.43,6.98,4.24Z"/>
              <path d="M395.19,84.69c-.3.75-.81-2.19-4.53-1.85-3.22.3-4.3,4.1-4.69,1.18-.2-1.49.89-2.9,2.24-3.57,3.67-1.81,8.12,1.43,6.98,4.24Z"/>
              <path class="cls-54" d="M335.42,71.27c-.55-1.03-.7-2.24-.62-3.42.13-1.16.47-2.33,1.02-3.38,1.11-2.09,2.9-3.87,5.19-4.89,1.13-.54,2.42-.83,3.73-.88l.99.02c.33.02.67.09.99.15.66.1,1.3.34,1.88.62,2.34,1.12,3.99,3.4,3.91,5.76-2.08-1.01-3.77-1.28-5.2-1.22-1.39.09-2.54.45-3.86,1.03-1.29.57-2.62,1.36-3.95,2.33-.68.48-1.32,1.03-2.02,1.64-.68.63-1.33,1.33-2.07,2.25Z"/>
              <path class="cls-54" d="M377.36,73.12c-.11-1.18.28-2.37.95-3.41.67-1.04,1.64-1.89,2.73-2.51,1.09-.63,2.3-1.01,3.52-1.19,1.25-.18,2.45-.15,3.76.13,2.6.56,4.76,2.22,6.08,4.11,1.33,1.92,2.02,4.06,1.98,6.4-2.09-1.05-3.71-2.16-5.24-2.99-1.52-.85-2.83-1.37-4.12-1.66-1.33-.29-2.89-.44-4.42-.36-1.56.09-3.19.35-5.24,1.49Z"/>
              <g class="cls-7">
                <path class="cls-30" d="M367.09,79.95c-.4,1.21-.87,2.43-.93,3.59-.1,1.17.42,2.03,1.27,2.85.86.8,1.85,1.58,2.85,2.37l.37.31s.1.06.21.12c.23.11.52.23.8.34.57.23,1.18.43,1.78.7.3.13.61.27.93.44.33.2.63.29,1.09.82.15.21.18.31.24.43.05.11.08.23.12.34.06.22.1.43.11.63.04.4.01.77-.02,1.12-.04.35-.09.69-.15,1.01l-.09.47c-.04.18-.09.43-.17.62-.32.82-.89,1.35-1.43,1.79-1.1.87-2.28,1.39-3.39,1.98-.56.28-1.11.58-1.61.92-.49.35-.97.77-1.07,1.42-.12-.66.28-1.33.71-1.81.44-.51.95-.92,1.45-1.33,1.02-.79,2.07-1.51,2.89-2.32.4-.4.7-.85.82-1.23.04-.11.04-.17.06-.31l.06-.47c.03-.3.06-.6.07-.88.01-.28,0-.55-.03-.78-.01-.12-.04-.22-.06-.31-.01-.04-.03-.08-.04-.11-.01-.03-.05-.08.01,0,.05.04-.23-.16-.46-.26-.25-.12-.52-.24-.8-.35l-1.75-.71c-.3-.13-.61-.26-.94-.43-.17-.09-.35-.18-.59-.39l-.36-.31c-.92-.87-1.91-1.69-2.77-2.76-.43-.54-.85-1.15-1.07-1.88-.23-.73-.19-1.52-.02-2.19.39-1.34,1.12-2.42,1.92-3.43Z"/>
              </g>
              <g>
                <g>
                  <path class="cls-21" d="M360.69,84.93c-.14,7.2-6.91,13.93-16.09,13.75-9.17-.18-16.42-9.58-16.28-16.78.14-7.2,7.63-9.48,16.8-9.29,9.17.18,15.71,5.13,15.56,12.33Z"/>
                  <path class="cls-20" d="M331.65,90.15l17.28-16.26,4.44,1.77-18.99,16.83.93,1.5,20.09-17.69,2.96,1.76-20.74,17.97s-6.26-1.57-5.97-5.89Z"/>
                  <path class="cls-47" d="M361.93,84.95c-.18,4.31-2.52,8.21-5.74,10.71-1.61,1.27-3.43,2.24-5.36,2.86-1.92.64-3.94.98-5.96.94-4.09-.01-8.09-1.72-11.08-4.44-2.99-2.7-5.4-6.16-6.36-10.25-.46-2.03-.53-4.29.29-6.43.38-1.08,1.05-2.04,1.81-2.88.8-.8,1.68-1.51,2.64-2.01,1.91-1.05,3.94-1.6,5.95-1.96,2.01-.35,4.02-.49,6.02-.52,4.01-.08,8.32.7,11.92,3.04,1.79,1.15,3.36,2.76,4.42,4.67,1.07,1.91,1.56,4.13,1.47,6.26ZM359.45,84.9c-.02-1.73-.5-3.39-1.38-4.81-.88-1.42-2.16-2.61-3.65-3.47-3.01-1.75-6.62-2.41-10.29-2.39-1.86-.02-3.72.06-5.52.32-1.8.26-3.55.72-5.06,1.49-1.52.75-2.76,1.84-3.37,3.31-.65,1.45-.73,3.22-.42,4.96.65,3.49,2.62,6.84,5.28,9.35,2.66,2.53,6.19,4.17,9.84,4.22,1.85.03,3.69-.29,5.42-.9,1.72-.64,3.32-1.57,4.69-2.76,2.72-2.39,4.48-5.83,4.47-9.31Z"/>
                  <line class="cls-25" x1="315.54" y1="79.07" x2="328.37" y2="79.46"/>
                </g>
                <g>
                  <path class="cls-21" d="M375.85,85.65c-.14,7.2,6.35,14.2,15.52,14.38,9.17.18,16.79-8.91,16.94-16.11.14-7.2-7.24-9.78-16.42-9.96-9.17-.18-15.9,4.49-16.04,11.69Z"/>
                  <path class="cls-20" d="M378.2,91.56l18.31-17.51,4.7,1.9-20.85,18.79,1.72.95,21.28-19.04,3.14,1.89-21.98,19.36s-6.63-1.68-6.32-6.34Z"/>
                  <path class="cls-47" d="M377.1,85.68c-.16,3.47,1.47,6.99,4.09,9.48,1.31,1.25,2.88,2.24,4.57,2.95,1.7.68,3.53,1.07,5.38,1.12,3.65.1,7.24-1.4,10.01-3.82,2.76-2.4,4.87-5.67,5.65-9.13.38-1.72.36-3.5-.23-4.97-.55-1.49-1.75-2.64-3.24-3.44-1.47-.83-3.21-1.36-4.99-1.69-1.79-.34-3.64-.49-5.51-.54-3.67-.17-7.3.35-10.38,1.98-1.53.81-2.84,1.94-3.79,3.32-.94,1.38-1.49,3.03-1.58,4.75ZM374.61,85.63c0-2.14.57-4.33,1.72-6.2,1.14-1.87,2.77-3.41,4.61-4.49,3.69-2.2,8.02-2.8,12.03-2.56,1.99.11,4,.33,5.99.76,1.99.44,4,1.07,5.86,2.2.94.54,1.79,1.29,2.55,2.11.72.87,1.36,1.86,1.69,2.95.73,2.18.57,4.43.04,6.44-1.13,4.05-3.67,7.42-6.77,9.99-3.09,2.59-7.16,4.14-11.25,3.99-2.02-.04-4.03-.46-5.92-1.18-1.9-.7-3.69-1.74-5.24-3.07-3.12-2.63-5.3-6.62-5.31-10.93Z"/>
                  <line class="cls-25" x1="401.37" y1="82.19" x2="408.36" y2="81.48"/>
                </g>
                <path class="cls-47" d="M356.48,81.47c.87-.6,1.59-1.03,2.43-1.43.81-.41,1.65-.74,2.51-1.03,1.72-.56,3.58-.83,5.41-.66.23.02.46.02.69.05l.68.14c.45.11.91.16,1.34.34l1.3.46,1.22.63.61.32.56.39,1.12.77c.72.54,1.35,1.17,2.07,1.74.72.57.84,1.61.27,2.33-.57.72-1.61.84-2.33.27-.11-.08-.2-.18-.28-.28l-.13-.17c-.46-.59-.94-1.2-1.45-1.76l-.84-.75-.43-.37-.47-.3c-1.21-.89-2.66-1.31-4.11-1.47-1.46-.13-2.96.13-4.34.72-.69.3-1.36.65-1.98,1.08-.6.42-1.25.94-1.64,1.4-.59.7-1.63.79-2.33.2-.7-.59-.79-1.63-.2-2.33.09-.11.21-.22.33-.3Z"/>
              </g>
            </g>
            <path class="cls-15" d="M327.38,92.74c-1.38.66-2.43,1.67-2.93,3.15-.44,1.31-.28,2.75.04,4.09.88,3.75,3.13,7.39,6.67,8.9,3.07,1.31,6.6.85,9.83.01,3.07-.79,6.85-1.6,9-4.08,2.57-2.96,3.76-6.83.09-9.49-1.43-1.04-3.16-1.58-4.88-2.01-3.69-.91-12.89-2.93-17.82-.57Z"/>
            <path class="cls-15" d="M399.81,90.39c-3.55.59-10.43,2.03-13.27,5.2-.87.97-1.36,2.1-1.26,3.41.08,1.17.68,2.24,1.36,3.18,1.9,2.64,4.85,4.76,8.1,4.79,2.2.02,4.26-.89,6.13-2.09.18-3.8-.2-7.95-.74-11.64-.15-1-.24-1.94-.31-2.86Z"/>
            <path class="cls-1" d="M394.36,39.87c-1.16.3-1.86,1.75-2.01,2.83-.06.43-.58.87-1.19,1.17-1,.48-2.22.57-3.27.24-2.46-.78-4.04-3.26-4.38-5.72-.15-1.07-1.06-1.55-2-.98-1.05.64-1.61,1.99-1.55,3.18.06,1.27.08,2.55.02,3.82-.06,1.34-.43,2.79-.39,4.12,0,.02,0,.05,0,.07-.34-.03-.74.04-1.1-.05-.87-.23-1.7-.79-2.37-1.38-2.88-2.56-4.42-6.23-7.7-8.41-.65-.43-1.59.32-1.97.75-.62.72-.95,1.64-.9,2.6.06,1.3.08,2.59.01,3.88-.02.35-.05.7-.07,1.05-.14-.14-.27-.28-.39-.4l-2.33-2.19c-1.55-1.46-3.11-2.92-4.66-4.38-1.72-1.62-4.33,2.59-2.87,3.97l5.38,5.06c1.26,1.19,3.03,3.63,4.99,3.47,2.62-.22,3.15-3.5,3.35-5.54.03-.34.05-.68.08-1.02,2.19,2.76,3.93,6.1,7.46,7.11,4.31,1.24,6.06-2.05,6.73-6,1.13,1.03,2.53,1.73,4.18,1.87,4.3.37,7.95-3.28,8.5-7.36.13-.98-.44-2.04-1.54-1.75Z"/>
          </g>
          <path class="cls-50" d="M282.88,99.21s-.93,68.49,73.52,67.49c0,0-38.82,5.97-59.6-18.41-20.78-24.38-24.4-41.19-24.07-45.81.34-4.62-21.78-13.74-21.78-13.74,0,0,27.5-.48,31.94,10.46Z"/>
          <path class="cls-50" d="M432.49,114.98s20.33-35.44,10.91-31.42c-9.42,4.02-30.75,32.66-30.75,32.66,0,0,5.96,42.39-36.7,49.56,0,0,39.36,1.74,46.29-38.62l10.25-12.19Z"/>
        </g>
      </g>
    </g>
  </g>
</svg>